<svg xmlns="http://www.w3.org/2000/svg" width="179.149" height="118.411" viewBox="0 0 179.149 118.411">
  <g id="Layer_2" data-name="Layer 2" transform="translate(0 0)">
    <g id="Layer_1" data-name="Layer 1" transform="translate(0 0)">
      <path id="Path_12958" data-name="Path 12958" d="M56.775,194.565H48.482L52.6,184.013ZM35.051,208.091H43.3l2.827-7.2H59.32l2.922,7.2h8.422L55.911,174.134H49.728Zm123.859,0h7.482V193.605l12.758-19.471h-8.871l-7.639,12.71-7.2-12.71h-9.291l12.758,19.471Zm-42.15,0h23.93v-6.909H124.241v-6.952h14.725v-6.909H124.241v-6.283H139.83v-6.9H116.759Zm-38.5,0h7.482V191.977l13.813,16.114H110l-16.42-18.177,15.107-15.756H98.926l-13.188,14.1V174.134H78.256ZM29.784,178.26c-2.865-3.691-7.678-4.99-11.459-4.99C7.721,173.27,0,180.227,0,191.113s7.721,17.838,18.32,17.838c4.65,0,9.449-1.867,12.276-5.9L24.389,198.4a8.117,8.117,0,0,1-7,3.643c-5.419,0-9.592-4.6-9.592-10.934s4.173-10.934,9.831-10.934a8.014,8.014,0,0,1,6.427,2.779Z" transform="translate(0 -90.54)" fill="#e8416d"/>
      <path id="Path_12959" data-name="Path 12959" d="M235.713,28.3a46.72,46.72,0,0,1,0,40.976L211.52,48.788Z" transform="translate(-110.527 -14.788)" fill="#e8416d" fill-rule="evenodd"/>
      <path id="Path_12960" data-name="Path 12960" d="M137.109,0a33.924,33.924,0,0,1,25.678,11.712l-9.449,8a21.624,21.624,0,1,0,0,28.576l9.449,8A34,34,0,1,1,137.109,0" transform="translate(-53.877 0)" fill="#e8416d" fill-rule="evenodd"/>
    </g>
  </g>
</svg>
