<svg xmlns="http://www.w3.org/2000/svg" width="300" height="271.878" viewBox="0 0 300 271.878">
  <g id="Group_8226" data-name="Group 8226" transform="translate(-37.901 -147)">
    <path id="Path_3675" data-name="Path 3675" d="M28.223,23.481c-3.117-.559-4.219-1.66-4.778-4.778a.5.5,0,0,0-.983,0c-.559,3.117-1.66,4.219-4.778,4.778a.5.5,0,0,0,0,.983c3.117.559,4.219,1.66,4.778,4.778a.5.5,0,0,0,.983,0c.559-3.117,1.66-4.219,4.778-4.778A.5.5,0,0,0,28.223,23.481Z" transform="translate(127.217 128.716)" fill="#f8793a"/>
    <path id="Path_3672" data-name="Path 3672" d="M284.214,247.384c1.166-.374,2.3-.792,3.438-1.256,6.533-2.661,12.6-6.847,16.489-12.736,20.032-30.227-15.5-59.3-20.435-87.646-2.691-15.487,5.217-29.614,3.872-44.384a51.937,51.937,0,0,0-17.371-34.069c-12.243-10.748-26.893-12.766-42.515-13.559C213.446,53,199.11,50.849,189.228,39.548c-5.2-5.95-10.24-13.23-17.431-16.967-22.394-11.63-42.186,3.6-60.05,15.517A108.469,108.469,0,0,1,71.669,54.362c-14.246,2.661-27.387,6.2-38.688,16.07-21.243,18.582-9.851,43.517-10.39,67.435-.254,11.122-5.681,21.542-9.388,31.782-5.217,14.4-3.947,29.7,6.5,41.439,10.24,11.5,25.4,17.475,37.776,26.3,20.749,14.755,35.19,37.731,61.306,43.233,26.46,5.576,54.205,2.2,79.23-7.624,14.187-5.561,27.88-12.408,42.4-17.072C254.884,251.256,269.953,252.093,284.214,247.384Z" transform="translate(27.688 135.577)" fill="#ffc537" opacity="0.1"/>
    <path id="Path_3673" data-name="Path 3673" d="M33.632,24.258a2.535,2.535,0,0,1-2.481-2.482.258.258,0,0,0-.508,0,2.524,2.524,0,0,1-2.482,2.482.267.267,0,0,0,0,.523,2.522,2.522,0,0,1,2.482,2.467.258.258,0,0,0,.508,0,2.532,2.532,0,0,1,2.481-2.467A.267.267,0,0,0,33.632,24.258Z" transform="translate(275.071 179.389)" fill="#ff5827"/>
    <path id="Path_3674" data-name="Path 3674" d="M17.179,26.865A2.532,2.532,0,0,1,14.7,24.4a.258.258,0,0,0-.508,0,2.532,2.532,0,0,1-2.482,2.467.267.267,0,0,0,0,.523,2.532,2.532,0,0,1,2.482,2.467.256.256,0,0,0,.508,0,2.532,2.532,0,0,1,2.482-2.467A.267.267,0,0,0,17.179,26.865Z" transform="translate(45.568 215.964)" fill="#ff5827"/>
    <path id="Path_3676" data-name="Path 3676" d="M27.832,23.946a2.558,2.558,0,0,1-2.5-2.482.256.256,0,0,0-.508,0,2.555,2.555,0,0,1-2.482,2.482.258.258,0,0,0,0,.508,2.556,2.556,0,0,1,2.482,2.482.258.258,0,0,0,.508,0,2.558,2.558,0,0,1,2.5-2.482A.258.258,0,0,0,27.832,23.946Z" transform="translate(193.957 174.873)" fill="#ffb871"/>
    <path id="Path_3677" data-name="Path 3677" d="M38.3,35.146c-2.511-.448-3.393-1.33-3.857-3.857a.4.4,0,0,0-.792,0c-.463,2.526-1.345,3.408-3.857,3.857a.41.41,0,0,0,0,.807c2.511.448,3.393,1.345,3.857,3.857a.4.4,0,0,0,.792,0C34.9,37.3,35.784,36.4,38.3,35.953A.41.41,0,0,0,38.3,35.146Z" transform="translate(296.076 310.517)" fill="#f8793a"/>
    <path id="Path_3678" data-name="Path 3678" d="M21.054,35.979c-2.511-.449-3.408-1.345-3.857-3.857a.4.4,0,0,0-.792,0c-.463,2.511-1.345,3.408-3.872,3.857a.413.413,0,0,0,0,.807c2.526.449,3.408,1.331,3.872,3.857a.4.4,0,0,0,.792,0c.448-2.526,1.345-3.408,3.857-3.857A.41.41,0,0,0,21.054,35.979Z" transform="translate(55.521 321.973)" fill="#f8793a"/>
    <path id="Path_3679" data-name="Path 3679" d="M31.088,37.823A2.471,2.471,0,0,1,28.666,35.4a.261.261,0,0,0-.508,0,2.471,2.471,0,0,1-2.422,2.422.258.258,0,0,0,0,.508,2.471,2.471,0,0,1,2.422,2.422.258.258,0,0,0,.508,0,2.471,2.471,0,0,1,2.422-2.422A.258.258,0,0,0,31.088,37.823Z" transform="translate(241.245 369.595)" fill="#ff5827"/>
    <rect id="Rectangle_222" data-name="Rectangle 222" width="166.991" height="125.023" transform="translate(102.677 233.329)" fill="#ffb871"/>
    <g id="Group_1098" data-name="Group 1098" transform="translate(76.783 233.329)">
      <g id="Group_1096" data-name="Group 1096">
        <path id="Path_3681" data-name="Path 3681" d="M38.7,23.73,12.814,43.259H44.068L62.555,23.73Z" transform="translate(-12.814 -23.73)" fill="#ff5827"/>
        <path id="Path_3682" data-name="Path 3682" d="M33.392,23.73,14.9,43.259H46.158L57.251,23.73Z" transform="translate(16.349 -23.73)" fill="#fff"/>
        <path id="Path_3683" data-name="Path 3683" d="M28.088,23.73,17,43.259H48.249l3.7-19.529Z" transform="translate(45.513 -23.73)" fill="#ff5827"/>
        <path id="Path_3684" data-name="Path 3684" d="M22.783,23.73l-3.7,19.529H50.34l-3.7-19.529Z" transform="translate(74.676 -23.73)" fill="#fff"/>
        <path id="Path_3685" data-name="Path 3685" d="M20.929,23.73l3.7,19.529H55.882L44.788,23.73Z" transform="translate(100.388 -23.73)" fill="#ff5827"/>
        <path id="Path_3686" data-name="Path 3686" d="M22.525,23.73,33.619,43.259H64.871L46.385,23.73Z" transform="translate(122.651 -23.73)" fill="#fff"/>
        <path id="Path_3687" data-name="Path 3687" d="M24.121,23.73,42.607,43.259H73.861L47.98,23.73Z" transform="translate(144.915 -23.73)" fill="#ff5827"/>
      </g>
      <g id="Group_1097" data-name="Group 1097" transform="translate(0.001 19.531)">
        <path id="Path_3688" data-name="Path 3688" d="M34.161,45.83H22.71a9.908,9.908,0,0,1-9.9-9.9v-10.9H44.072v10.9A9.911,9.911,0,0,1,34.161,45.83Z" transform="translate(-12.814 -25.036)" fill="#f23d17"/>
        <path id="Path_3689" data-name="Path 3689" d="M36.252,45.83H24.8a9.9,9.9,0,0,1-9.9-9.9v-10.9H46.148v10.9A9.9,9.9,0,0,1,36.252,45.83Z" transform="translate(16.353 -25.036)" fill="#ededed"/>
        <path id="Path_3690" data-name="Path 3690" d="M38.357,45.83H26.906A9.911,9.911,0,0,1,17,35.934v-10.9H48.253v10.9A9.9,9.9,0,0,1,38.357,45.83Z" transform="translate(45.507 -25.036)" fill="#f23d17"/>
        <path id="Path_3691" data-name="Path 3691" d="M40.433,45.83H28.982a9.908,9.908,0,0,1-9.9-9.9v-10.9H50.344v10.9A9.911,9.911,0,0,1,40.433,45.83Z" transform="translate(74.674 -25.036)" fill="#ededed"/>
        <path id="Path_3692" data-name="Path 3692" d="M42.524,45.83H31.073a9.9,9.9,0,0,1-9.9-9.9v-10.9H52.42v10.9A9.9,9.9,0,0,1,42.524,45.83Z" transform="translate(103.842 -25.036)" fill="#f23d17"/>
        <path id="Path_3693" data-name="Path 3693" d="M44.629,45.83H33.178a9.911,9.911,0,0,1-9.911-9.9v-10.9H54.525v10.9A9.9,9.9,0,0,1,44.629,45.83Z" transform="translate(132.995 -25.036)" fill="#ededed"/>
        <path id="Path_3694" data-name="Path 3694" d="M46.705,45.83H35.254a9.908,9.908,0,0,1-9.9-9.9v-10.9H56.616v10.9A9.911,9.911,0,0,1,46.705,45.83Z" transform="translate(162.163 -25.036)" fill="#f23d17"/>
      </g>
    </g>
    <path id="Path_3695" data-name="Path 3695" d="M170.7,23.006H25.355A10.814,10.814,0,0,0,14.547,33.814H181.513A10.814,10.814,0,0,0,170.7,23.006Z" transform="translate(88.144 199.507)" fill="#ffb871"/>
    <path id="Path_3696" data-name="Path 3696" d="M191.816,32.093H21.233a7.3,7.3,0,0,0-7.3,7.3v1.854H199.112V39.388A7.3,7.3,0,0,0,191.816,32.093Z" transform="translate(79.649 326.262)" fill="#ff8a4c"/>
    <rect id="Rectangle_223" data-name="Rectangle 223" width="166.991" height="6.128" transform="translate(102.677 352.225)" fill="#ffb871" opacity="0.3" style="mix-blend-mode: multiply;isolation: isolate"/>
    <g id="Group_1101" data-name="Group 1101" transform="translate(115.069 284.507)">
      <g id="Group_1099" data-name="Group 1099">
        <path id="Path_3697" data-name="Path 3697" d="M87.683,30.83a.536.536,0,0,1,.538.538V70.415a.539.539,0,0,1-.538.553H19.591a.543.543,0,0,1-.553-.553V31.369a.539.539,0,0,1,.553-.538H87.683m0-3.677H19.591a4.22,4.22,0,0,0-4.216,4.216V70.415a4.224,4.224,0,0,0,4.216,4.231H87.683A4.233,4.233,0,0,0,91.9,70.415V31.369a4.23,4.23,0,0,0-4.216-4.216Z" transform="translate(-15.375 -27.153)" fill="#f8793a"/>
        <path id="Path_3698" data-name="Path 3698" d="M84.266,27.4a.536.536,0,0,1,.538.538V66.984a.539.539,0,0,1-.538.553H16.173a.543.543,0,0,1-.553-.553V27.937a.539.539,0,0,1,.553-.538H84.266" transform="translate(-11.957 -23.722)" fill="#ffeeca"/>
        <path id="Path_3699" data-name="Path 3699" d="M17.274,27.4,34.386,67.54H39.7L22.276,27.4Z" transform="translate(11.11 -23.723)" fill="#ffe3ca" opacity="0.67" style="mix-blend-mode: screen;isolation: isolate"/>
        <path id="Path_3700" data-name="Path 3700" d="M18.478,27.4,35.59,67.54h1.229L19.4,27.4Z" transform="translate(27.903 -23.723)" fill="#ffe3ca" opacity="0.3" style="mix-blend-mode: screen;isolation: isolate"/>
        <path id="Path_3701" data-name="Path 3701" d="M16.523,27.4,33.637,67.54h1.229L17.441,27.4Z" transform="translate(0.641 -23.723)" fill="#ffe3ca" opacity="0.3" style="mix-blend-mode: screen;isolation: isolate"/>
        <path id="Path_3702" data-name="Path 3702" d="M84.266,27.4H16.173a.539.539,0,0,0-.553.538v3.677a.552.552,0,0,1,.553-.553h17.55L49.27,67.537h5.322L38.761,31.062h45.5a.549.549,0,0,1,.538.553V27.937A.536.536,0,0,0,84.266,27.4Z" transform="translate(-11.957 -23.722)" fill="#ffe3ca" opacity="0.5" style="mix-blend-mode: multiply;isolation: isolate"/>
      </g>
      <g id="Group_1100" data-name="Group 1100" transform="translate(97.348)">
        <path id="Path_3703" data-name="Path 3703" d="M66.749,101V31.369a4.22,4.22,0,0,0-4.216-4.216H26.1a4.22,4.22,0,0,0-4.216,4.216V101ZM25.55,31.369a.549.549,0,0,1,.553-.538H62.533a.549.549,0,0,1,.553.538V70.415a.552.552,0,0,1-.553.553H26.1a.552.552,0,0,1-.553-.553Z" transform="translate(-21.887 -27.153)" fill="#f8793a"/>
        <path id="Path_3704" data-name="Path 3704" d="M59.116,27.4a.549.549,0,0,1,.553.538V66.984a.552.552,0,0,1-.553.553H22.685a.552.552,0,0,1-.553-.553V27.937a.549.549,0,0,1,.553-.538H59.116" transform="translate(-18.469 -23.722)" fill="#ffeeca"/>
        <path id="Path_3705" data-name="Path 3705" d="M22.864,27.4,39.978,67.54h5.313L27.866,27.4Z" transform="translate(-8.256 -23.723)" fill="#ffe3ca" opacity="0.3" style="mix-blend-mode: screen;isolation: isolate"/>
        <path id="Path_3706" data-name="Path 3706" d="M59.116,27.4H22.685a.549.549,0,0,0-.553.538v3.677a.562.562,0,0,1,.553-.553h3.782L42.014,67.537h5.307L31.49,31.062H59.116a.562.562,0,0,1,.553.553V27.937A.549.549,0,0,0,59.116,27.4Z" transform="translate(-18.469 -23.722)" fill="#ffe3ca" opacity="0.5" style="mix-blend-mode: multiply;isolation: isolate"/>
      </g>
    </g>
  </g>
</svg>
