<svg xmlns="http://www.w3.org/2000/svg" width="300" height="286.11" viewBox="0 0 300 286.11">
  <g id="Group_8731" data-name="Group 8731" transform="translate(-42 -150)">
    <path id="Path_3649" data-name="Path 3649" d="M73.752,27.223c-1.847-.322-2.49-.966-2.812-2.8a.3.3,0,0,0-.593,0c-.322,1.83-.966,2.473-2.8,2.8a.3.3,0,0,0,0,.593c1.83.322,2.474.966,2.8,2.8a.3.3,0,0,0,.593,0c.322-1.83.966-2.474,2.812-2.8A.3.3,0,0,0,73.752,27.223Z" transform="translate(-23.578 218.796)" fill="#ffd125"/>
    <path id="Path_3653" data-name="Path 3653" d="M78.06,36.538c-2.863-.508-3.863-1.525-4.371-4.371a.465.465,0,0,0-.915,0c-.508,2.846-1.508,3.863-4.371,4.371a.465.465,0,0,0,0,.915c2.863.508,3.863,1.508,4.371,4.371a.468.468,0,0,0,.915,0c.508-2.863,1.508-3.863,4.371-4.371A.465.465,0,0,0,78.06,36.538Z" transform="translate(-12.215 339.95)" fill="#ff5827"/>
    <path id="Path_3654" data-name="Path 3654" d="M87.644,38.173c-1.8-.322-2.44-.949-2.762-2.745a.285.285,0,0,0-.559,0,2.812,2.812,0,0,1-2.745,2.745.293.293,0,0,0,0,.576,2.812,2.812,0,0,1,2.745,2.745.283.283,0,0,0,.559,0c.322-1.8.966-2.423,2.762-2.745A.3.3,0,0,0,87.644,38.173Z" transform="translate(200.053 394.375)" fill="#ffd125"/>
    <path id="Path_3647" data-name="Path 3647" d="M340.035,247.378c1.151-.374,2.3-.792,3.438-1.256,6.533-2.661,12.587-6.846,16.488-12.736,20.016-30.226-15.5-59.3-20.435-87.644-2.706-15.487,5.217-29.613,3.872-44.382a52,52,0,0,0-17.37-34.068c-12.243-10.748-26.893-12.766-42.514-13.558-14.261-.732-28.6-2.885-38.463-14.186-5.2-5.95-10.255-13.23-17.43-16.967-22.408-11.63-42.2,3.6-60.064,15.517a108.364,108.364,0,0,1-40.077,16.264c-14.246,2.661-27.386,6.2-38.672,16.07-21.257,18.581-9.866,43.515-10.4,67.433-.239,11.122-5.666,21.541-9.388,31.781-5.217,14.4-3.946,29.7,6.518,41.438,10.225,11.5,25.383,17.475,37.775,26.295,20.749,14.754,35.174,37.73,61.289,43.231,26.474,5.576,54.2,2.2,79.243-7.624,14.186-5.561,27.879-12.407,42.394-17.071C310.706,251.25,325.774,252.087,340.035,247.378Z" transform="translate(-24.027 133.65)" fill="#feece5" opacity="0.54"/>
    <path id="Path_3648" data-name="Path 3648" d="M89.447,24.258a2.514,2.514,0,0,1-2.481-2.481.267.267,0,0,0-.523,0,2.511,2.511,0,0,1-2.467,2.481.267.267,0,0,0,0,.523,2.508,2.508,0,0,1,2.467,2.467.267.267,0,0,0,.523,0,2.511,2.511,0,0,1,2.481-2.467A.267.267,0,0,0,89.447,24.258Z" transform="translate(223.363 177.46)" fill="#ff5827"/>
    <path id="Path_3650" data-name="Path 3650" d="M82.752,22.87C80,22.376,79.029,21.4,78.536,18.654a.448.448,0,0,0-.882,0c-.493,2.751-1.465,3.722-4.216,4.216a.441.441,0,0,0,0,.867c2.751.493,3.722,1.465,4.216,4.216a.448.448,0,0,0,.882,0C79.029,25.2,80,24.23,82.752,23.737A.441.441,0,0,0,82.752,22.87Z" transform="translate(74.353 131.716)" fill="#ff5827"/>
    <path id="Path_3651" data-name="Path 3651" d="M83.844,23.254a2.545,2.545,0,0,1-2.482-2.481.267.267,0,0,0-.523,0,2.535,2.535,0,0,1-2.482,2.481.267.267,0,0,0,0,.523,2.514,2.514,0,0,1,2.482,2.481.267.267,0,0,0,.523,0,2.524,2.524,0,0,1,2.482-2.481A.267.267,0,0,0,83.844,23.254Z" transform="translate(144.999 163.456)" fill="#ffd125"/>
    <path id="Path_3652" data-name="Path 3652" d="M94.114,35.146c-2.511-.448-3.408-1.33-3.857-3.857a.413.413,0,0,0-.807,0C89,33.816,88.12,34.7,85.593,35.146a.413.413,0,0,0,0,.807C88.12,36.4,89,37.3,89.45,39.81a.41.41,0,0,0,.807,0c.449-2.511,1.345-3.408,3.857-3.857A.41.41,0,0,0,94.114,35.146Z" transform="translate(244.361 308.585)" fill="#ff5827"/>
    <path id="Path_12688" data-name="Path 12688" d="M72.353,476.492s165.1,6.88,204.882,0c2.934-.507,2.731-4.529-20.332-3.755s-87.684,2.272-119.176.588-66.313-.706-71,.37S67.97,476.477,72.353,476.492Z" transform="translate(26.097 -43.439)" fill="#ffe9e1"/>
    <ellipse id="Ellipse_207" data-name="Ellipse 207" cx="86.662" cy="82.639" rx="86.662" ry="82.639" transform="translate(102.183 203.738)" fill="#ffe9e1" opacity="0.82"/>
    <ellipse id="Ellipse_208" data-name="Ellipse 208" cx="49.528" cy="47.229" rx="49.528" ry="47.229" transform="translate(98.864 182.343)" fill="#fcdbd2" opacity="0.81"/>
    <ellipse id="Ellipse_209" data-name="Ellipse 209" cx="29.321" cy="27.96" rx="29.321" ry="27.96" transform="translate(193.95 289.401)" fill="#fcdbd2" opacity="0.81"/>
    <path id="Path_12689" data-name="Path 12689" d="M382.578,321.16a3.486,3.486,0,1,1-3.485-3.485A3.486,3.486,0,0,1,382.578,321.16Z" transform="translate(-114.482 26.598)" fill="#ffe9e1"/>
    <path id="Path_12690" data-name="Path 12690" d="M72.667,161.658a3.486,3.486,0,1,1-3.486-3.485A3.486,3.486,0,0,1,72.667,161.658Z" transform="translate(25.784 98.789)" fill="#ffe9e1"/>
    <path id="Path_12691" data-name="Path 12691" d="M376.211,100.166a3.486,3.486,0,1,1-3.486-3.485A3.486,3.486,0,0,1,376.211,100.166Z" transform="translate(-111.601 126.62)" fill="#ffe9e1"/>
    <path id="Path_12692" data-name="Path 12692" d="M399.563,118a2.228,2.228,0,1,1-2.228-2.228A2.229,2.229,0,0,1,399.563,118Z" transform="translate(-123.308 117.98)" fill="#ffe9e1"/>
    <path id="Path_12693" data-name="Path 12693" d="M184.873,375.92a2.313,2.313,0,1,1-2.313-2.313A2.313,2.313,0,0,1,184.873,375.92Z" transform="translate(-26.062 1.283)" fill="#ffe9e1"/>
    <circle id="Ellipse_210" data-name="Ellipse 210" cx="3.898" cy="3.898" r="3.898" transform="translate(215.741 374.89)" fill="#ffe9e1"/>
    <path id="Path_12694" data-name="Path 12694" d="M61.665,237.072a3.573,3.573,0,1,1-3.573-3.573A3.574,3.574,0,0,1,61.665,237.072Z" transform="translate(30.844 64.696)" fill="none" stroke="#f7d6cb" stroke-miterlimit="10" stroke-width="1"/>
    <line id="Line_1" data-name="Line 1" x2="4.027" transform="translate(93.954 306.915)" fill="none" stroke="#f7d6cb" stroke-linecap="round" stroke-linejoin="round" stroke-width="1"/>
    <line id="Line_2" data-name="Line 2" y2="4.027" transform="translate(95.967 304.902)" fill="none" stroke="#f7d6cb" stroke-linecap="round" stroke-linejoin="round" stroke-width="1"/>
    <g id="Group_8726" data-name="Group 8726" transform="translate(180.482 150)">
      <path id="Path_12695" data-name="Path 12695" d="M241.234,33.262a14.587,14.587,0,0,0-19.435,0c-2.819,2.548-5.077,6.569-4.773,12.9.758,15.818,14.491,29.129,14.491,29.129s13.733-13.311,14.491-29.129C246.31,39.831,244.053,35.81,241.234,33.262Z" transform="translate(-216.998 -29.554)" fill="#e2b7ac"/>
      <circle id="Ellipse_211" data-name="Ellipse 211" cx="8.235" cy="8.235" r="8.235" transform="translate(6.257 6.578)" fill="#ffe9e1"/>
    </g>
    <g id="Group_8729" data-name="Group 8729" transform="translate(168.005 199.066)">
      <g id="Group_8727" data-name="Group 8727" transform="translate(6.673 39.528)">
        <path id="Path_12696" data-name="Path 12696" d="M283.511,155.062v13.953l-.279.093c-1.341.449-7.269,2.337-11.6,2.507-.914.038-2.294-.613-3.93-1.686-6.147-4.045-15.935-14.156-18.546-16.9a19.107,19.107,0,0,1-4.324-1.275l1.576-10.225a3.789,3.789,0,0,1-1.916-1.774c-.624-1.3-.142-2.217,1.21-1.642s3.952-.241,4.959,1.451c.744,1.232,2.31,4.56,3.1,6.251l20.089,13.263,5.7-2.365,3.952-1.648Z" transform="translate(-229.693 -130.647)" fill="#ff9067"/>
        <path id="Path_12697" data-name="Path 12697" d="M238.92,139.155a1.923,1.923,0,0,0-2.169.9c-.9,1.337.145,2.675,1.337,3.289s5.856,2.784,6.542,1.373-1.251-2.842-2.028-3.217c0,0-1.855-.687-2.011-1.808Z" transform="translate(-226.16 -131.167)" fill="#ff9067"/>
        <path id="Path_12698" data-name="Path 12698" d="M237.1,145.143a4.1,4.1,0,0,0-.367,3.259c.614,1.663,3.721,2.393,5.059,2.826a2.68,2.68,0,0,0,3.038-1.742c.253-.94-.927-1.724-.927-1.724S238.04,145.685,237.1,145.143Z" transform="translate(-226.214 -133.907)" fill="#ff9067"/>
        <path id="Path_12699" data-name="Path 12699" d="M237.5,152.218s-.361,2.387.47,3.4,4.049,1.157,4.772.94a2.105,2.105,0,0,0,1.41-1.482c0-.47-.651-.731-.651-.731s-.506.224-2.06-.209A20.527,20.527,0,0,1,237.5,152.218Z" transform="translate(-226.616 -137.109)" fill="#ff9067"/>
        <path id="Path_12700" data-name="Path 12700" d="M302.908,169.23l-.263,14.041c-1.341.449-7.269,2.337-11.6,2.507-.914.038-2.294-.613-3.93-1.686a10.947,10.947,0,0,1,4.478-.991c2.228.175,2.518,1.292,4.806.35,1.949-.8,2.452-9.9,2.562-12.574Z" transform="translate(-249.106 -144.809)" fill="#dd704e"/>
        <path id="Path_12701" data-name="Path 12701" d="M221.324,136.8a11.485,11.485,0,0,0-.47,2.343l13.206.65-4.1-1.089Z" transform="translate(-219.119 -130.132)" fill="#00878f"/>
        <path id="Path_12702" data-name="Path 12702" d="M239.96,159.282a2.973,2.973,0,0,0,1.47,1.984,4.1,4.1,0,0,0,3.687-.217c.615-.434.687-.8.434-1.287s-1.092-.655-1.092-.655A4.962,4.962,0,0,1,239.96,159.282Z" transform="translate(-227.766 -140.227)" fill="#ff9067"/>
        <path id="Path_12703" data-name="Path 12703" d="M244.015,138.546a6.838,6.838,0,0,0,4.015,2.121c2.322.2,3.456,4.775,3.534,6.026a4.609,4.609,0,0,1-.508,2.294s1.994.951,1.759,1.694-2.5-.7-3.265-.391-2.04,2.342-2.985,2.481-1.727-3.16-1.863-5.323.82-3.14.42-4.391S242.566,139.314,244.015,138.546Z" transform="translate(-229.378 -130.921)" fill="#dd704e"/>
        <path id="Path_12704" data-name="Path 12704" d="M233.192,137.71s-9.795-2.214-14.649-3.275l1.446-2.422s7.333,1.694,12.721,3.576C232.71,135.589,233.066,137.42,233.192,137.71Z" transform="translate(-218.073 -127.964)" fill="#8ebcb8"/>
        <path id="Path_12705" data-name="Path 12705" d="M232.5,133.907s-12.466-4.049-14.816-4.41c0,0,3.615-4.229,4.266-4.88,0,0,7.048,2.3,11.531,7.294C233.481,131.911,232.314,131.613,232.5,133.907Z" transform="translate(-217.684 -124.617)" fill="#a8d3d1"/>
        <path id="Path_12706" data-name="Path 12706" d="M238.609,145.638a39.285,39.285,0,0,0,4.657,1.782c1.676.43,2.908-.684,2.79-1.193" transform="translate(-227.155 -134.131)" fill="none" stroke="#b55039" stroke-linecap="round" stroke-miterlimit="10" stroke-width="1"/>
        <path id="Path_12707" data-name="Path 12707" d="M246.446,142.893l3.069.939.1.03s-.145,2.727,1.263,4.056" transform="translate(-230.702 -132.889)" fill="none" stroke="#b55039" stroke-linecap="round" stroke-miterlimit="10" stroke-width="1"/>
        <path id="Path_12708" data-name="Path 12708" d="M238.609,151.217s2.54.846,3.87,1.2,2.727-.27,2.952-1.029a1.552,1.552,0,0,0-.84-1.857" transform="translate(-227.155 -135.895)" fill="none" stroke="#b55039" stroke-linecap="round" stroke-miterlimit="10" stroke-width="1"/>
        <path id="Path_12709" data-name="Path 12709" d="M241.643,157.462a10.757,10.757,0,0,0,2.913.372c.684-.176,1.792-1.1,1.662-1.818a1.49,1.49,0,0,0-.684-1.018" transform="translate(-228.528 -138.368)" fill="none" stroke="#b55039" stroke-linecap="round" stroke-miterlimit="10" stroke-width="1"/>
        <path id="Path_12710" data-name="Path 12710" d="M247.76,159.313s.963-.05.748,1.14-2.063,1.253-2.063,1.253" transform="translate(-230.702 -140.32)" fill="none" stroke="#b55039" stroke-linecap="round" stroke-miterlimit="10" stroke-width="1"/>
        <path id="Path_12711" data-name="Path 12711" d="M296.958,179.065a26.933,26.933,0,0,0-.7,6.3" transform="translate(-253.228 -149.26)" fill="none" stroke="#b55039" stroke-linecap="round" stroke-miterlimit="10" stroke-width="1"/>
        <path id="Path_12712" data-name="Path 12712" d="M241.048,136.515a34.35,34.35,0,0,0-3.631-2.3" transform="translate(-226.615 -128.961)" fill="none" stroke="#003755" stroke-linecap="round" stroke-miterlimit="10" stroke-width="1"/>
      </g>
      <path id="Path_12713" data-name="Path 12713" d="M336.368,321.171l18.93,35.593,13.089-9.1S357.73,323.847,355.3,317.959s-5.795-13.237-5.795-13.237,3.235-50.2,3.235-55.251H337.986C333.1,268.662,335.493,316.369,336.368,321.171Z" transform="translate(-264.111 -141.599)" fill="#6d0a0a"/>
      <path id="Path_12714" data-name="Path 12714" d="M313.5,240.4v4.891h29.5v-5.053Z" transform="translate(-254.379 -137.421)" fill="#6d0a0a"/>
      <path id="Path_12715" data-name="Path 12715" d="M326.8,80.957l2.086,8.687L315.33,92.95l-.285-1.456-.931-4.713a28.562,28.562,0,0,1-5.66.536h-.038c-1.577-.06-2.956-.4-3.3-1.319-.914-2.436-1.347-8.517-1.347-8.517l-.788-1.577a1.655,1.655,0,0,1,.629-2.151,6.517,6.517,0,0,0,1.024-.794c1.308-1.215,1.046-3.646,1.566-7.3a20.018,20.018,0,0,1,1.828-6.087,20.214,20.214,0,0,1,10.685-2.255c6.087.432,11.386,4,11.386,9.733S326.8,80.957,326.8,80.957Z" transform="translate(-249.54 -54.609)" fill="#ff9067"/>
      <path id="Path_12716" data-name="Path 12716" d="M327.224,101.8c-2.71,3.35-5.961,7.034-7.083,7.39a1.292,1.292,0,0,1-.547,0l-.931-4.713a28.563,28.563,0,0,1-5.66.536l-.142-.81s6.749-1.15,9.235-3.5,2.852-4.122,2.852-4.122a9.1,9.1,0,0,1,3.733,0C330.158,97.048,329.928,98.444,327.224,101.8Z" transform="translate(-254.088 -72.304)" fill="#dd704e"/>
      <path id="Path_12717" data-name="Path 12717" d="M339.466,111.734s-1.263-3.318-2.02-3.585-13.687,3.911-14.209,4.3-.652,5.345-.652,5.345Z" transform="translate(-258.49 -77.63)" fill="#fedc97"/>
      <path id="Path_12718" data-name="Path 12718" d="M343.118,182.724a2.578,2.578,0,0,1-2.578,2.441H313.5a2.581,2.581,0,0,1-2.584-2.584c0-.843.016-1.834.044-2.956.3-11.972,1.943-38.126,1.878-42.965-.088-6.169,4.467-15.891,4.467-15.891l16.871-6.06h.005s6.81,3.865,9.147,11.364C345.576,133.256,343.665,172.488,343.118,182.724Z" transform="translate(-253.21 -80.605)" fill="#ffbb4c"/>
      <path id="Path_12719" data-name="Path 12719" d="M330.068,100.848s-.261,2.829-3.911,4.784" transform="translate(-260.106 -74.332)" fill="none" stroke="#b55039" stroke-linecap="round" stroke-linejoin="round" stroke-width="1"/>
      <path id="Path_12720" data-name="Path 12720" d="M314.591,93.052c-.476,3.257-2.206,6.328-6.164,7.237h-.011c-1.352-.049-2.562-.307-3.087-.963a1.168,1.168,0,0,1-.208-.356,38.786,38.786,0,0,1-1.281-7.707c-.044-.5-.066-.81-.066-.81l-.788-1.576a1.609,1.609,0,0,1-.055-1.336,1.707,1.707,0,0,1,.684-.816,6.513,6.513,0,0,0,1.024-.794,27.9,27.9,0,0,0,6.218,2.48c.542.131,1.018.257,1.44.4C314.367,89.466,314.985,90.337,314.591,93.052Z" transform="translate(-249.54 -67.58)" fill="#fedc97"/>
      <g id="Group_8728" data-name="Group 8728" transform="translate(0 62.361)">
        <rect id="Rectangle_17400" data-name="Rectangle 17400" width="46.928" height="35.631" rx="12" fill="#690505"/>
        <path id="Path_12721" data-name="Path 12721" d="M211.457,174.417l15.359,9.236a8.465,8.465,0,0,0,9.116-.25l14.351-9.743" transform="translate(-208.193 -169.648)" fill="none" stroke="#222221" stroke-miterlimit="10" stroke-width="1"/>
        <path id="Path_12722" data-name="Path 12722" d="M251.72,212.262l-15.359-9.237a8.465,8.465,0,0,0-9.116.251l-14.351,9.743" transform="translate(-208.843 -182.391)" fill="none" stroke="#222221" stroke-miterlimit="10" stroke-width="1"/>
        <line id="Line_3" data-name="Line 3" x2="34.955" transform="translate(6.4 2.296)" fill="none" stroke="#222221" stroke-miterlimit="10" stroke-width="1"/>
        <rect id="Rectangle_17401" data-name="Rectangle 17401" width="3.555" height="36.274" transform="translate(21.414)" fill="#934242"/>
        <rect id="Rectangle_17402" data-name="Rectangle 17402" width="46.928" height="2.599" transform="translate(0 15.216)" fill="#934242"/>
        <path id="Rectangle_17403" data-name="Rectangle 17403" d="M1.321,0H4.841A1.322,1.322,0,0,1,6.162,1.322v.954A1.321,1.321,0,0,1,4.841,3.6H1.321A1.321,1.321,0,0,1,0,2.276V1.321A1.321,1.321,0,0,1,1.321,0Z" transform="translate(8.089 3.444)" fill="#892424"/>
      </g>
      <path id="Path_12723" data-name="Path 12723" d="M322.021,76.636l4.627,1.7a25.918,25.918,0,0,0,5.013-12.281,10.1,10.1,0,0,0-5.013-9.929c-5.205-5.061-15.471-4-19.761-2.361s-5.494,6.169-4.393,7.711,2.417-.674,2.417-.674-.385,2.313,1.205,2.891,2.117-2.121,2.117-2.121.148,2.265,1.121,2.844,1.665-1.735,1.665-1.735c.615,2.121,3.754,2.712,3.754,2.712s.278,2.283,1.366,3.2a5.2,5.2,0,0,0,1.707,1.076l-.359,3.52s.228.358,1.173-.652a4.462,4.462,0,0,0,1.108-2.216s.368-2.206,2.184-2.216,1.936,1.784,1.861,2.661-.564,2.881-.574,3.233S322.794,76.15,322.021,76.636Z" transform="translate(-249.223 -52.407)" fill="#680304"/>
      <path id="Path_12724" data-name="Path 12724" d="M334.135,90.54l.2-.75a1.523,1.523,0,0,0,2.185-.2c1.208-1.141.846-3.324,1.53-5.019s0-3.748-1.6-3.52a1.871,1.871,0,0,0-1.727,1.564" transform="translate(-263.717 -65.366)" fill="none" stroke="#b55039" stroke-linecap="round" stroke-miterlimit="10" stroke-width="1"/>
      <path id="Path_12725" data-name="Path 12725" d="M337.856,83.292s.065-.554-.749-.554-1.6,1.271-1.532,2.444.351,1.3,0,1.858-.713.359-.615,1.368.912,1.076,1.173.815-.163-1.108-.163-1.108" transform="translate(-264.081 -66.135)" fill="none" stroke="#b55039" stroke-linecap="round" stroke-miterlimit="10" stroke-width="1"/>
      <path id="Path_12726" data-name="Path 12726" d="M337.35,85.119a2.731,2.731,0,0,1,.945,2" transform="translate(-265.172 -67.212)" fill="none" stroke="#b55039" stroke-linecap="round" stroke-miterlimit="10" stroke-width="1"/>
      <path id="Path_12727" data-name="Path 12727" d="M328.681,97.652s-2.082,4.471-8.594,5.908" transform="translate(-257.359 -72.885)" fill="none" stroke="#222221" stroke-miterlimit="10" stroke-width="1"/>
      <path id="Path_12728" data-name="Path 12728" d="M316.084,82.456a1.7,1.7,0,0,0-1.368-1.008,1.374,1.374,0,0,0-1.418.88" transform="translate(-254.286 -65.546)" fill="none" stroke="#222221" stroke-miterlimit="10" stroke-width="1"/>
      <path id="Path_12729" data-name="Path 12729" d="M311.8,147.694c-.7,7.127-1.757,20.259-2.452,24.781-.285,1.856-.405,3.887-.761,5.709-.509,2.606-1.5,4.8-4.155,5.518-.131.038-.285.077-.46.12-.569.153-1.352.361-2.31.613-7.286,1.894-24.458,6.246-30.008,7.012-.181.109-.372.224-.575.35l-.005.005c-1.483.881-3.536,2.053-5.37,2.9a12.226,12.226,0,0,1-3.011,1.062,5.552,5.552,0,0,1-4.609-1.089l-1.587-.334a4.04,4.04,0,0,1-2.43-1.839c-1.3-.17-2.179-1.888-1.133-2.266s1.675.3,3.312.3a5.18,5.18,0,0,0,.991-.109,10.929,10.929,0,0,0,2.633-.974l-2.649.383-.1.016s-3.18-.405-3.936-.657-1.341-1.587,0-2.009a8.972,8.972,0,0,1,2.447-.17,10.818,10.818,0,0,0,3.416-.29c1.631-.586,4.27-2.053,3.952-2.217a10.336,10.336,0,0,0-2.507.126c-.5.049-1.018.1-1.489.12-1.587.088-2.3-1.675-1.171-1.883,1.078-.2,3.071-1.007,4.927-1.259.088-.016.181-.027.268-.038,1.927-.208,7.4,1.095,7.57,1.171L294.726,172.2s-.044-20.511,0-21.206-1.434-12.689,0-16.165l17.079,1.609A47.239,47.239,0,0,1,311.8,147.694Z" transform="translate(-226.719 -89.712)" fill="#ff9067"/>
      <path id="Path_12730" data-name="Path 12730" d="M345.555,153.151l-18.475.635s-.23-1.943-.443-4.686a98.343,98.343,0,0,1-.328-9.979,38.43,38.43,0,0,1,.821-6.9,7.8,7.8,0,0,1,5.354-5.835,15.18,15.18,0,0,1,4.658-.7c4.439.071,7.56,2.518,8.413,6.191C346.36,135.339,345.555,153.151,345.555,153.151Z" transform="translate(-260.164 -85.573)" fill="#fedc97"/>
      <path id="Path_12731" data-name="Path 12731" d="M345.848,153.153l-18.475.635s-.23-1.943-.443-4.686a15.836,15.836,0,0,0,4.85.131c4.571-.619,4.675.246,8.025-.536s.257-4.735,1.626-8.567,1.024-7.937-3.2-13.1a4.037,4.037,0,0,1-.794-1.341c4.439.071,7.56,2.518,8.413,6.191C346.653,135.341,345.848,153.153,345.848,153.153Z" transform="translate(-260.456 -85.575)" fill="#f4ce89"/>
      <path id="Path_12732" data-name="Path 12732" d="M343,249.47s-.06,1.056-.181,3.328c-.153,2.841-.416,7.592-.816,14.561-.011.268-.027.542-.044.821-.055.974-.137,2-.246,3.054-1.095,10.751-4.636,25.115-5.9,30.014-.279,1.1-.449,1.724-.449,1.724s.027,1.577.055,3.925c.06,5.085.126,13.805-.055,18.02-.186,4.259-.115,19.416-.055,28.344.027,3.974.055,6.711.055,6.711h-18.2s-.109-2.283-.274-5.912c-.635-13.6-2.135-46.146-2.135-48.68,0-3.213-1.336-21.409-1.264-30.775.055-6.914.027-17.314.011-22.29-.005-1.763-.011-2.846-.011-2.846Z" transform="translate(-254.376 -141.598)" fill="#de7b53"/>
      <path id="Path_12733" data-name="Path 12733" d="M323.739,465.611c-2.107.3-17.265-.055-18.77,0s-6.421.5-7.674-.3,1.056-2.211,1.358-2.863,1.352-1.051,2.956-1.555,12.245-5.37,12.245-5.37l-.1-2.617-.055-1.566h11.594s.077.81.192,1.992c.219,2.277.58,5.928.81,7.91C326.646,464.253,325.846,465.31,323.739,465.611Z" transform="translate(-246.876 -232.965)" fill="#ff9067"/>
      <path id="Path_12734" data-name="Path 12734" d="M325.071,470.2c-.454.35-28.853,1.407-31.913.454-.892-.279-.744-1.473.077-2.956,1.96-3.591,7.811-8.868,12.065-6.881,1.418.662,2.107,3.361,2.863,5.573s15.354.651,16.559,1.653a2.152,2.152,0,0,1,.739.974A1.049,1.049,0,0,1,325.071,470.2Z" transform="translate(-244.896 -237.06)" fill="#007095"/>
      <path id="Path_12735" data-name="Path 12735" d="M375.607,437.294s2.727,2.213,2.727,4.02a41.535,41.535,0,0,1-1.363,6.69l5.779,2.944s6.69-4.889,9.166-6.827,1.873-4.413.937-5.483-6.8-7.241-7.28-8.271Z" transform="translate(-282.488 -223.473)" fill="#dd704e"/>
      <path id="Path_12736" data-name="Path 12736" d="M371.552,451.7s5.218,3.212,6.489,3.947,10.838-7.895,11.641-7.493a1.4,1.4,0,0,1,.736,2.074c-.535.87-9.634,8.764-12.845,11.307-3.537,2.8-12.744,3.969-13.448,2.186-.518-1.313,1-4.809,2.744-7.486S369.678,451.5,371.552,451.7Z" transform="translate(-277.244 -231.517)" fill="#015d75"/>
      <line id="Line_4" data-name="Line 4" x1="2.944" y2="0.792" transform="translate(75.909 161.518)" fill="#fff" stroke="#222221" stroke-miterlimit="10" stroke-width="1"/>
      <path id="Path_12737" data-name="Path 12737" d="M341.545,59.929a25.353,25.353,0,0,0-5.474.7" transform="translate(-264.594 -55.811)" fill="none" stroke="#510307" stroke-miterlimit="10" stroke-width="1"/>
      <path id="Path_12738" data-name="Path 12738" d="M253.189,230.316a8.972,8.972,0,0,1,2.447-.17,3.649,3.649,0,0,1,1.292,1.111,3.945,3.945,0,0,1,.3,1.708l-.1.016s-3.18-.405-3.936-.657S251.848,230.738,253.189,230.316Z" transform="translate(-226.719 -132.85)" fill="#dd704e"/>
      <path id="Path_12739" data-name="Path 12739" d="M265.779,240.413a12.225,12.225,0,0,1-3.011,1.062,5.553,5.553,0,0,1-4.609-1.089l-1.587-.334a4.04,4.04,0,0,1-2.43-1.839c-1.3-.17-2.179-1.889-1.133-2.266s1.675.3,3.312.3a5.178,5.178,0,0,0,.991-.109,5.208,5.208,0,0,0,.515,2.4C258.531,239.795,263.359,240.337,265.779,240.413Z" transform="translate(-226.79 -135.427)" fill="#dd704e"/>
      <path id="Path_12740" data-name="Path 12740" d="M335.593,258.13c.624,4.379.153,3.75,1.248,6.722.717,1.943,3.372,2.414,5.167,2.507-.011.268-.027.542-.044.821-.055.974-.137,2-.246,3.054-2.584.328-6.782.082-7.22,1.3-.629,1.735-.783,4.363-2.737,9.054s-2.425,17.987-1.473,19.706c.684,1.243,3.793.367,5.534-.044-.279,1.1-.449,1.724-.449,1.724s.027,1.577.055,3.925c-2,1.2-5.709,2.113-5.939,3.936a42.688,42.688,0,0,0,.159,13.45c1.095,6.1-1.254,21.272.64,26.1,1.007,2.573,3.2,3.022,5.031,2.879.027,3.974.055,6.711.055,6.711h-18.2s-.109-2.283-.274-5.912c2.168-.7,6.317-2.48,7.116-6.082,1.095-4.927-1.56-23.85-1.56-26.669s.783-11.572-.159-14,.159-4.609.312-6.64-.783-3.284.312-13.45,4.226-26.9,1.566-30.5c-2.244-3.033-8.939-4.133-10.975-4.4-.005-1.763-.011-2.846-.011-2.846H343s-.06,1.056-.181,3.328C339.726,253.575,335.171,255.218,335.593,258.13Z" transform="translate(-254.378 -141.598)" fill="#c96647"/>
      <path id="Path_12741" data-name="Path 12741" d="M332.143,205.286s2.815,2.346,3.519,3.753" transform="translate(-262.816 -121.601)" fill="none" stroke="#b55039" stroke-linecap="round" stroke-miterlimit="10" stroke-width="1"/>
      <path id="Path_12742" data-name="Path 12742" d="M257.357,239.336a12.339,12.339,0,0,0,3.832,0,7.093,7.093,0,0,0,2.972-1.407" transform="translate(-228.967 -136.375)" fill="none" stroke="#b55039" stroke-linecap="round" stroke-miterlimit="10" stroke-width="1"/>
      <path id="Path_12743" data-name="Path 12743" d="M264.357,242.882a6.7,6.7,0,0,0,2.307-.274,4.263,4.263,0,0,0,1.525-1.251" transform="translate(-232.135 -137.926)" fill="none" stroke="#b55039" stroke-linecap="round" stroke-miterlimit="10" stroke-width="1"/>
      <line id="Line_5" data-name="Line 5" x2="15.835" y2="0.235" transform="translate(63.286 213.594)" fill="none" stroke="#6d0a0a" stroke-linecap="round" stroke-linejoin="round" stroke-width="1"/>
      <path id="Path_12744" data-name="Path 12744" d="M335,250a5.463,5.463,0,0,0,3.555,4.965" transform="translate(-264.111 -141.838)" fill="none" stroke="#6d0a0a" stroke-linecap="round" stroke-linejoin="round" stroke-width="1"/>
      <path id="Path_12745" data-name="Path 12745" d="M340.927,250s-.586,9.658-1.407,17.165S336,299.187,336,299.187s.938,1.408.469,2.111.117,2.058.117,2.058.352,1.281-.117,1.605,1.29,42.436.117,50.47" transform="translate(-264.561 -141.838)" fill="none" stroke="#6d0a0a" stroke-linecap="round" stroke-linejoin="round" stroke-width="1"/>
      <path id="Path_12746" data-name="Path 12746" d="M329.643,173.742s12.707-.274,15.718-.313" transform="translate(-261.684 -107.182)" fill="none" stroke="#e98c00" stroke-linecap="round" stroke-miterlimit="10" stroke-width="1"/>
      <path id="Path_12747" data-name="Path 12747" d="M364.23,253.286h-2.092s-1.067,9.443-.709,12.492,1.784,4.047,1.784,4.047" transform="translate(-276.038 -143.325)" fill="none" stroke="#6d0a0a" stroke-linecap="round" stroke-linejoin="round" stroke-width="1"/>
      <line id="Line_6" data-name="Line 6" y1="4.402" x2="13.226" transform="translate(66.122 35.035)" fill="none" stroke="#e98c00" stroke-linecap="round" stroke-miterlimit="10" stroke-width="1"/>
      <path id="Path_12748" data-name="Path 12748" d="M343.118,182.724a2.578,2.578,0,0,1-2.578,2.441H313.5a2.581,2.581,0,0,1-2.584-2.584c0-.843.016-1.834.044-2.956a10.685,10.685,0,0,0,5.786,1.889c5.162.137,10.817-1.987,15.809-1.943s6.032-6.3,7.625-15.869,1.122-40.836-4.511-44.755c-2.162-1.505-2.228-2.983-1.494-4.237h.005s6.81,3.865,9.147,11.364C345.576,133.256,343.665,172.488,343.118,182.724Z" transform="translate(-253.21 -80.605)" fill="#efa943"/>
      <path id="Path_12749" data-name="Path 12749" d="M329.672,178.16l15.863,1.565.346-3.79-16.239.594Z" transform="translate(-261.684 -108.316)" fill="#dd704e"/>
      <path id="Path_12750" data-name="Path 12750" d="M349.335,214.03c-.509,2.606-1.5,4.8-4.155,5.518-.564.153-1.522.405-2.77.734.137-1.095.657-3.843,2.474-4.823A14.149,14.149,0,0,1,349.335,214.03Z" transform="translate(-267.463 -125.558)" fill="#dd704e"/>
      <path id="Path_12751" data-name="Path 12751" d="M319.279,222.413c-.569.153-1.352.361-2.31.613-7.286,1.894-24.458,6.246-30.008,7.012-.181.109-.372.224-.575.35a.994.994,0,0,0,.213-.531c0-.98-.646-4.5-.3-5.085s1.587,3.4,2.113,3.695,28.328-6.448,31.087-8.151C320.7,219.578,320.226,220.793,319.279,222.413Z" transform="translate(-242.022 -128.303)" fill="#dd704e"/>
      <path id="Path_12752" data-name="Path 12752" d="M266.812,220.28a4.115,4.115,0,0,1-2.266,3.022c-.5.049-1.018.1-1.489.12-1.587.088-2.3-1.675-1.171-1.883C262.963,221.342,264.956,220.532,266.812,220.28Z" transform="translate(-230.768 -128.387)" fill="#dd704e"/>
      <path id="Path_12753" data-name="Path 12753" d="M323.836,89.713s4.056-2.1,5.768-4.594" transform="translate(-259.056 -67.212)" fill="none" stroke="#222221" stroke-linecap="round" stroke-linejoin="round" stroke-width="1"/>
      <path id="Path_12754" data-name="Path 12754" d="M346.739,109.085s-2.191,1.329-2.542,2.659,4.3.391,4.145,0S347.091,108.537,346.739,109.085Z" transform="translate(-268.263 -78.028)" fill="#f4ce89"/>
      <path id="Path_12755" data-name="Path 12755" d="M303.84,92.592c-.044-.5-.066-.81-.066-.81l-.788-1.576a1.609,1.609,0,0,1-.055-1.336c.641.263,3.646,1.522,3.854,1.91S304.935,92.795,303.84,92.592Z" transform="translate(-249.54 -68.91)" fill="#f4ce89"/>
      <path id="Path_12756" data-name="Path 12756" d="M316.672,95.432c-.476,3.257-2.206,6.328-6.164,7.237H310.5c-1.352-.049-2.562-.307-3.087-.963,1.3.2,3.673.066,5.523-2.836,2.206-3.454,1.33-6.536,1.445-7.68C316.448,91.847,317.066,92.717,316.672,95.432Z" transform="translate(-251.621 -69.96)" fill="#f4ce89"/>
      <path id="Path_12757" data-name="Path 12757" d="M325.071,471.258c-.454.35-28.853,1.407-31.913.454-.892-.279-.744-1.472.077-2.956a11.246,11.246,0,0,0,7.226.608c5.474-1.177,1.566-6.563,2.972-6.645s2.425,2.89,2.972,4.921,5.244,2.994,9.388,3.06a88.5,88.5,0,0,0,9.667-.624A1.049,1.049,0,0,1,325.071,471.258Z" transform="translate(-244.896 -238.115)" fill="#015d75"/>
      <path id="Path_12758" data-name="Path 12758" d="M337.992,453.891a4.395,4.395,0,0,1,0,2.814,4.964,4.964,0,0,1-2.7,2.819s-.06-4.4-1.171-4.872c-.788-.328-4.418-1.237-6.5-1.746l-.055-1.566h11.594s.077.81.192,1.992Z" transform="translate(-260.746 -232.965)" fill="#dd704e"/>
      <path id="Path_12759" data-name="Path 12759" d="M311.571,461.679s2.486.718,3.443,5.491" transform="translate(-253.505 -237.645)" fill="none" stroke="#003755" stroke-linecap="round" stroke-miterlimit="10" stroke-width="1"/>
      <path id="Path_12760" data-name="Path 12760" d="M294.643,476.786s2.6.315,12.709.363,17.613-.363,17.613-.363" transform="translate(-245.843 -244.482)" fill="none" stroke="#003755" stroke-linecap="round" stroke-miterlimit="10" stroke-width="1"/>
      <path id="Path_12761" data-name="Path 12761" d="M374.464,457.393s4.516,1.7,6.1,3.519" transform="translate(-281.97 -235.705)" fill="none" stroke="#003755" stroke-linecap="round" stroke-miterlimit="10" stroke-width="1"/>
      <path id="Path_12762" data-name="Path 12762" d="M369.321,463.936a21.813,21.813,0,0,0,9.56-2.533c4.692-2.569,12.786-10.546,12.786-10.546" transform="translate(-279.643 -232.747)" fill="none" stroke="#003755" stroke-linecap="round" stroke-miterlimit="10" stroke-width="1"/>
    </g>
    <g id="Group_8730" data-name="Group 8730" transform="translate(115.701 196.317)">
      <path id="Path_12763" data-name="Path 12763" d="M127.115,437.805l-1.528,9.167,13.958.358,1.052-7.874Z" transform="translate(-117.024 -224.09)" fill="#6d0a0a"/>
      <path id="Path_12764" data-name="Path 12764" d="M156.921,466.107c-3.761,1.878-15.212.624-20.133.892s-14.944,0-15.568-1.254.985-7.872.985-9.481a18.376,18.376,0,0,1,.367-3.054,1.18,1.18,0,0,1,1.423-.925,24.194,24.194,0,0,0,5.545.668,34.845,34.845,0,0,0,7.6-1.111,1.178,1.178,0,0,1,1.336.619c.29.569.668,1.347,1,2.1.63,1.434,6.8,1.79,11.364,3.58,3.914,1.533,4.209,3.334,4.894,4.2a1.265,1.265,0,0,0,.389.356C157.189,463.332,156.921,466.107,156.921,466.107Z" transform="translate(-114.981 -230.428)" fill="#a8d3d1"/>
      <path id="Path_12765" data-name="Path 12765" d="M156.921,466.787c-3.761,1.878-15.212.624-20.133.892s-14.944,0-15.568-1.254.985-7.872.985-9.481a18.376,18.376,0,0,1,.367-3.054,1.177,1.177,0,0,1,.3-.58,19.612,19.612,0,0,0,7.3,1.4c4.565-.049,2.578,2.091-1.056,3.284s-4.2,4.182-2.6,5,6.706-1.073,13.1.9,15-.126,16.121-.865a1.265,1.265,0,0,0,.389.356C157.189,464.012,156.921,466.787,156.921,466.787Z" transform="translate(-114.981 -231.108)" fill="#8ebcb8"/>
      <path id="Path_12766" data-name="Path 12766" d="M154.368,75.9l-.788,1.576a53.147,53.147,0,0,1-1.1,7.713,8.39,8.39,0,0,1-.246.8c-.909,2.43-8.994.783-8.994.783l-.7,3.547-.515,2.622-13.559-3.306,2.086-8.687s-3.3-8.167-3.3-13.9,5.3-9.3,11.386-9.733a20.243,20.243,0,0,1,10.691,2.255,20.113,20.113,0,0,1,1.823,6.087c.52,3.651.263,6.082,1.566,7.3a6.776,6.776,0,0,0,1.024.794A1.655,1.655,0,0,1,154.368,75.9Z" transform="translate(-117.776 -51.86)" fill="#ff9067"/>
      <path id="Path_12767" data-name="Path 12767" d="M158.734,103.122a8.39,8.39,0,0,1-.246.8c-.909,2.43-8.994.783-8.994.783l-.7,3.547-3.772-.383-3.952-10.99,2.14.25a7.355,7.355,0,0,0,4.808,4.947A44.363,44.363,0,0,0,158.734,103.122Z" transform="translate(-124.031 -69.788)" fill="#dd704e"/>
      <path id="Path_12768" data-name="Path 12768" d="M126.5,111.734s1.263-3.318,2.02-3.585,13.688,3.911,14.209,4.3.651,5.345.651,5.345Z" transform="translate(-117.435 -74.881)" fill="#007095"/>
      <path id="Path_12769" data-name="Path 12769" d="M142.276,185.165H110.2s-.515-23.96-.1-41.361c.2-8.156.6-14.873,1.352-17,.186-.526.378-1.035.575-1.522,3.071-7.669,6.974-10.57,6.974-10.57l1.248.449,15.634,5.611s3.137,5.036,4.779,14.5c.706,4.051,1.188,24.879,1.423,38.312.027,1.352.049,2.622.071,3.8.011.832.027,1.609.038,2.332C142.249,183.063,142.276,185.165,142.276,185.165Z" transform="translate(-109.943 -77.856)" fill="#37a2c6"/>
      <path id="Path_12770" data-name="Path 12770" d="M146.619,100.848s.261,2.829,3.911,4.784" transform="translate(-126.543 -71.582)" fill="none" stroke="#b55039" stroke-linecap="round" stroke-miterlimit="10" stroke-width="1"/>
      <path id="Path_12771" data-name="Path 12771" d="M142.276,185.165H110.2s-1.111-51.7,1.254-58.363c3.131-8.808,7.549-12.092,7.549-12.092l1.248.449c-2.08,2.4-4.751,7.861-5.036,20.111-.46,19.684,1.505,40.984,26.943,42.111C142.238,182.056,142.276,185.165,142.276,185.165Z" transform="translate(-109.943 -77.856)" fill="#298499"/>
      <path id="Path_12772" data-name="Path 12772" d="M133.527,76.906,128.9,78.6a25.917,25.917,0,0,1-5.012-12.281,10.1,10.1,0,0,1,5.012-9.929c5.205-5.06,9.277-3.488,13.567-1.85S149.26,61.9,149.26,61.9l-4.733,1.053c-.615,2.121-3.754,2.712-3.754,2.712s-.278,2.283-1.366,3.2a5.188,5.188,0,0,1-1.707,1.075l.359,3.52s-.228.359-1.173-.652a4.458,4.458,0,0,1-1.108-2.216s-.368-2.207-2.184-2.216-1.936,1.784-1.861,2.661.564,2.881.574,3.233S132.754,76.42,133.527,76.906Z" transform="translate(-116.226 -49.906)" fill="#680304"/>
      <path id="Path_12773" data-name="Path 12773" d="M167.4,175.677v8.862s-.487.044-1.358.115c-5.781.482-28.454,2.321-36.73,2.053a13.075,13.075,0,0,1-2.584-.257c-.142-.038-.279-.077-.411-.12h-.005c-2.852-.92-3.98-2.983-4.626-5.611-.29-1.177-.487-2.469-.7-3.826-.7-4.521-1.56-22.071-2.261-29.2a47.239,47.239,0,0,1,0-11.254l17.079-1.609c1.434,3.476-.044,15.469,0,16.165s0,21.206,0,21.206l25.75,2.836,5.063.553Z" transform="translate(-113.782 -86.963)" fill="#ff9068"/>
      <path id="Path_12774" data-name="Path 12774" d="M142.333,90.54l-.2-.75a1.523,1.523,0,0,1-2.185-.2c-1.208-1.141-.845-3.324-1.53-5.019s0-3.748,1.6-3.52a1.871,1.871,0,0,1,1.727,1.564" transform="translate(-122.714 -62.617)" fill="none" stroke="#b55039" stroke-linecap="round" stroke-miterlimit="10" stroke-width="1"/>
      <path id="Path_12775" data-name="Path 12775" d="M139.652,83.292s-.065-.554.75-.554,1.6,1.271,1.532,2.444-.351,1.3,0,1.858.713.359.615,1.368-.913,1.076-1.173.815.163-1.108.163-1.108" transform="translate(-123.389 -63.386)" fill="none" stroke="#b55039" stroke-linecap="round" stroke-miterlimit="10" stroke-width="1"/>
      <path id="Path_12776" data-name="Path 12776" d="M141.78,85.119a2.733,2.733,0,0,0-.945,2" transform="translate(-123.92 -64.463)" fill="none" stroke="#b55039" stroke-linecap="round" stroke-miterlimit="10" stroke-width="1"/>
      <path id="Path_12777" data-name="Path 12777" d="M144.134,97.652s2.082,4.471,8.594,5.908" transform="translate(-125.418 -70.136)" fill="none" stroke="#003755" stroke-linecap="round" stroke-miterlimit="10" stroke-width="1"/>
      <path id="Path_12778" data-name="Path 12778" d="M161.532,82.456a1.7,1.7,0,0,1,1.369-1.008,1.374,1.374,0,0,1,1.418.88" transform="translate(-133.293 -62.797)" fill="none" stroke="#222221" stroke-miterlimit="10" stroke-width="1"/>
      <path id="Path_12779" data-name="Path 12779" d="M167.656,88.145a1.571,1.571,0,0,1-.175.69l-.788,1.577s-.016.224-.044.6a41.277,41.277,0,0,1-1.275,7.833.482.482,0,0,1-.027.082c-.339.92-1.719,1.259-3.3,1.319h-.011c-3.958-.909-5.687-3.98-6.164-7.237-.411-2.8.268-3.635,2.5-4.308.367-.115.783-.224,1.237-.334a27.9,27.9,0,0,0,6.218-2.48,6.514,6.514,0,0,0,1.024.794A1.692,1.692,0,0,1,167.656,88.145Z" transform="translate(-130.682 -64.812)" fill="#a8d3d1"/>
      <path id="Path_12780" data-name="Path 12780" d="M136.842,150.878c-.071,1.921-.126,3.191-.126,3.191l-18.475.63a119.957,119.957,0,0,1-.772-14.659,38.364,38.364,0,0,1,.821-6.9,7.847,7.847,0,0,1,5.354-5.835c6.864-2.064,11.939.64,13.072,5.49C137.307,135.332,137.033,145.585,136.842,150.878Z" transform="translate(-113.338 -83.239)" fill="#007095"/>
      <rect id="Rectangle_17404" data-name="Rectangle 17404" width="32.225" height="5.89" transform="translate(0.108 104.709)" fill="#6d0a0a"/>
      <path id="Path_12781" data-name="Path 12781" d="M142.584,307.481c-.022.952-.049,1.686-.077,2.162-.071,1.084-.29,3.076-.613,5.644-1.171,9.289-3.651,26.067-4.888,34.3-.443,2.961-.723,4.817-.723,4.817l-20.7-1.2.974-7.061,4.467-32.477-2-24.491s-3.186-8.211-5.474-14.583c-.224-.63-.443-1.243-.651-1.823-.706-2.025-1.259-3.717-1.5-4.669-.761-3.033-1.089-12.158-1.2-16.422-.038-1.374-.055-2.244-.055-2.244h32.225s.011,1,.027,2.742C142.486,262.266,142.792,297.322,142.584,307.481Z" transform="translate(-110.032 -138.831)" fill="#007095"/>
      <path id="Path_12782" data-name="Path 12782" d="M129.994,347.961a28.106,28.106,0,0,0,7.012,1.626c-.443,2.961-.723,4.817-.723,4.817l-20.7-1.2.974-7.061c2.113-.493,5.288-1.319,5.934-6.388.942-7.352,2.173-19.553,1.949-21.743s-1.029-1.407,0-7.5,1.319-17.358,0-19.706.088-5.162-2.261-8.917-.153-4.844-2.66-5.939c-2.086-.914-4.5-.3-5.972-1.352-.224-.63-.443-1.243-.651-1.823,1.095-.909,5.348-.843,5.846-4.746.624-4.9,1.872-11.161.777-13.192-.887-1.659-7.05-2.792-9.328-3.153-.038-1.374-.055-2.244-.055-2.244h32.225s.011,1,.027,2.742c-3.547,1.533-12.125,5.687-13.482,10.63-1.719,6.257.624,25.334,2.5,32.532s.624,8.912.624,12.667a18.749,18.749,0,0,0,.63,5.945c.312,1.248-.942,3.126-1.412,7.193s.471,3.438-.624,13.138S127.64,346.79,129.994,347.961Z" transform="translate(-110.032 -138.831)" fill="#015d75"/>
      <line id="Line_7" data-name="Line 7" x2="6.623" transform="translate(6.181 133.682)" fill="none" stroke="#003755" stroke-linecap="round" stroke-miterlimit="10" stroke-width="1"/>
      <path id="Path_12783" data-name="Path 12783" d="M136.842,154.561c-.071,1.921-.126,3.191-.126,3.191l-18.475.63a119.956,119.956,0,0,1-.772-14.659,38.364,38.364,0,0,1,.821-6.9,7.779,7.779,0,0,1,.772-2.08c.17,5.49,1.451,15.448,8.184,18.59A16.838,16.838,0,0,0,136.842,154.561Z" transform="translate(-113.338 -86.922)" fill="#015d75"/>
      <path id="Path_12784" data-name="Path 12784" d="M164.891,68.464s-6.344-1.868-7.734-2.563-9.82,2.476-12.731,2.781-1.364,1.077-.7,1.173a105.9,105.9,0,0,0,11.6,1.043c5.605.13,7.756-1.412,9.777-1.347.565.019,1.328.39,1.465.116S166.925,68.943,164.891,68.464Z" transform="translate(-124.777 -55.72)" fill="#007095"/>
      <path id="Path_12785" data-name="Path 12785" d="M148.22,57.564C143.633,60.388,132.2,61.39,132.2,61.39l-8.764,1.281a16.71,16.71,0,0,1-.471-3.684,9.7,9.7,0,0,1,.8-4.308c1.587-3.257,6.29-3.848,10.012-5.8a13.118,13.118,0,0,1,3.7-1.2,13.6,13.6,0,0,1,7.122.372,3.129,3.129,0,0,1,1.226.832c1.341,1.593,2.053,6.087,2.294,7.9C148.187,57.268,148.22,57.564,148.22,57.564Z" transform="translate(-115.838 -47.385)" fill="#37a2c6"/>
      <path id="Path_12786" data-name="Path 12786" d="M148.221,57.564C143.634,60.388,132.2,61.39,132.2,61.39l-8.764,1.281a16.712,16.712,0,0,1-.471-3.684c1.024.12,3.262.279,3.711-.531.586-1.056,2.814-1.467,5.419-2.523s3.317-2.348,3.23-3.52.323-1.817,1.615-3.164c.755-.788.706-1.292.536-1.577a13.6,13.6,0,0,1,7.122.372,4.963,4.963,0,0,0-3.684,1.965,8.984,8.984,0,0,0-1.626,7.456c.525,2.118,7.094-.3,8.386-.6.159-.038.307-.066.443-.088C148.189,57.268,148.221,57.564,148.221,57.564Z" transform="translate(-115.839 -47.385)" fill="#298499"/>
      <path id="Path_12787" data-name="Path 12787" d="M145.934,205a49.168,49.168,0,0,0-3.363,4.223" transform="translate(-124.711 -118.722)" fill="none" stroke="#b55039" stroke-linecap="round" stroke-miterlimit="10" stroke-width="1"/>
      <line id="Line_8" data-name="Line 8" x1="14.623" transform="translate(6.6 68.918)" fill="none" stroke="#003755" stroke-linecap="round" stroke-miterlimit="10" stroke-width="1"/>
      <line id="Line_9" data-name="Line 9" x2="1.955" transform="translate(51.017 91.166)" fill="none" stroke="#222221" stroke-miterlimit="10" stroke-width="1"/>
      <path id="Path_12788" data-name="Path 12788" d="M150.492,48.643a6.139,6.139,0,0,0-3.093,2.991c-1.292,2.4-1.181,4.633-2.234,6.158a6.34,6.34,0,0,0-1.046,3.269" transform="translate(-125.411 -47.954)" fill="none" stroke="#003755" stroke-linecap="round" stroke-miterlimit="10" stroke-width="1"/>
      <line id="Line_10" data-name="Line 10" y1="1.31" x2="7.39" transform="translate(9.083 12.633)" fill="none" stroke="#003755" stroke-linecap="round" stroke-miterlimit="10" stroke-width="1"/>
      <path id="Path_12789" data-name="Path 12789" d="M142.542,250s-.547,3.441-2.268,5a6.524,6.524,0,0,1-3.988,1.564" transform="translate(-121.866 -139.089)" fill="none" stroke="#003755" stroke-linecap="round" stroke-miterlimit="10" stroke-width="1"/>
      <path id="Path_12790" data-name="Path 12790" d="M136.278,250s.117,12.355,0,13.176.821,8.046.821,9.595,1.642,5.772,2.815,14.217,1.642,11.026,1.642,14.545-.352,5.4,0,5.865a5.192,5.192,0,0,1,0,3.284,3.431,3.431,0,0,0,.264,2.229s-3.535,30.967-3.894,35.307" transform="translate(-121.858 -139.089)" fill="none" stroke="#003755" stroke-linecap="round" stroke-miterlimit="10" stroke-width="1"/>
      <line id="Line_11" data-name="Line 11" x2="16.062" y2="1.29" transform="translate(7.968 210.889)" fill="none" stroke="#003755" stroke-linecap="round" stroke-miterlimit="10" stroke-width="1"/>
      <path id="Path_12791" data-name="Path 12791" d="M110.859,253.63l4.593.46s.411,8.794,0,12.02-2.37,3.812-2.37,3.812" transform="translate(-110.358 -140.732)" fill="none" stroke="#003755" stroke-linecap="round" stroke-miterlimit="10" stroke-width="1"/>
      <path id="Path_12792" data-name="Path 12792" d="M124.5,458.594a3.622,3.622,0,0,0,3.558-2.737" transform="translate(-116.532 -232.261)" fill="none" stroke="#003755" stroke-linecap="round" stroke-miterlimit="10" stroke-width="1"/>
      <path id="Path_12793" data-name="Path 12793" d="M121.786,472.643s.665.7,6.764,1.055,8.68.039,12.316.391,13.176-.039,15.053-1.447" transform="translate(-115.303 -239.858)" fill="none" stroke="#003755" stroke-linecap="round" stroke-miterlimit="10" stroke-width="1"/>
      <path id="Path_12794" data-name="Path 12794" d="M145.714,454.857a5.493,5.493,0,0,0,2.229,2.972c1.994,1.564,6.921,1.29,10.479,2.463a6.613,6.613,0,0,1,4.3,4.5" transform="translate(-126.133 -231.808)" fill="none" stroke="#003755" stroke-linecap="round" stroke-miterlimit="10" stroke-width="1"/>
      <line id="Line_12" data-name="Line 12" x1="1.44" y2="2.014" transform="translate(23.574 224.652)" fill="none" stroke="#003755" stroke-linecap="round" stroke-miterlimit="10" stroke-width="1"/>
      <line id="Line_13" data-name="Line 13" x1="0.531" y2="1.83" transform="translate(26.697 225.442)" fill="none" stroke="#003755" stroke-linecap="round" stroke-miterlimit="10" stroke-width="1"/>
      <line id="Line_14" data-name="Line 14" x1="0.087" y2="1.642" transform="translate(29.825 226.059)" fill="none" stroke="#003755" stroke-linecap="round" stroke-miterlimit="10" stroke-width="1"/>
      <path id="Path_12795" data-name="Path 12795" d="M136.758,178.068l-16,3.684-.286-4.3,16.288-.587Z" transform="translate(-114.708 -105.987)" fill="#dd704e"/>
      <path id="Path_12796" data-name="Path 12796" d="M173.155,208.833l-.58,9.065c-6.613.553-35.318,2.874-39.314,1.8-.142-.038-.279-.077-.411-.12,8.528-1.16,32.154-4.423,33.785-5.348,1.576-.9,1.538-4.489,1.456-5.945Z" transform="translate(-120.311 -120.207)" fill="#dd704e"/>
      <path id="Path_12797" data-name="Path 12797" d="M220.933,207.506c-.29.619-3.158,2.343-4.368,2.606l-.186.033a9.748,9.748,0,0,1-1.73.077l-.066.317,1.757.049.334.011a13.883,13.883,0,0,0,2.009-.909c1.144-.624,1.21-.493,1.6-.3s.328.816-.2,1.434a5.023,5.023,0,0,1-2.7,1.664,7.568,7.568,0,0,1-1.56.2c-.575.027-1.171.027-1.681.016l-.1.493,1.325.224.432.071a3.917,3.917,0,0,1,1.221-.52c.772-.2,1.8-.1,1.67.421a3.569,3.569,0,0,1-2.638,1.675,17.208,17.208,0,0,1-3.158,0,.573.573,0,0,0-.044-.06c-2.086-.011-7.018-.044-7.018-.044l-4.565,1.39a2.049,2.049,0,0,1-.69-1.691c.131-1-.263-1.434-.657-3.35s1.39-2.343.564-4.341.438-2.912.438-2.912c.027.005.06.016.093.022a17.747,17.747,0,0,0,2.381.279l3.131-1.478a10.041,10.041,0,0,1,2.261-1.347,3.993,3.993,0,0,1,.389-.126c1.171-.3,4.3-.591,4.888-.684s.848,1.04-.3,1.56c-.405.186-.81.367-1.193.525a6.945,6.945,0,0,1-1.735.553c-.651.066-1.368,1.275-1.368,1.275s-.148-.011-.378-.044l.038.027,3.356.224c1.013-.071,2.54-.164,3.345-.208h.055c1.243-.066,3.2-.87,3.75-.049s-.3,1.472-1.664,1.828c-.476.126-1.1.279-1.7.421-1.1.268-2.151.509-2.2.526l.17.416,2.118-.12.12-.005s3.323-1.56,3.876-1.462A.871.871,0,0,1,220.933,207.506Z" transform="translate(-150.639 -116.789)" fill="#a8d3d1"/>
      <path id="Path_12798" data-name="Path 12798" d="M223,214.429a3.511,3.511,0,0,1-1.642,0" transform="translate(-160.37 -122.99)" fill="none" stroke="#003755" stroke-linecap="round" stroke-miterlimit="10" stroke-width="1"/>
      <line id="Line_15" data-name="Line 15" x1="1.368" transform="translate(60.988 94.02)" fill="none" stroke="#003755" stroke-linecap="round" stroke-miterlimit="10" stroke-width="1"/>
      <path id="Path_12799" data-name="Path 12799" d="M207.556,219.262a19.617,19.617,0,0,1-.861-3.91,21.87,21.87,0,0,1,.274-4.066" transform="translate(-153.724 -121.567)" fill="none" stroke="#003755" stroke-linecap="round" stroke-miterlimit="10" stroke-width="1"/>
      <path id="Path_12800" data-name="Path 12800" d="M219.948,202.821c-1.4-.509-2.934-1.007-3.788-1.275a4,4,0,0,1,.389-.126c1.171-.3,4.3-.591,4.888-.684s.848,1.04-.3,1.56C220.736,202.481,220.331,202.662,219.948,202.821Z" transform="translate(-158.017 -116.789)" fill="#8ebcb8"/>
      <path id="Path_12801" data-name="Path 12801" d="M218.684,216.163a3.569,3.569,0,0,1-2.638,1.675,17.208,17.208,0,0,1-3.158,0,.573.573,0,0,0-.044-.06c-2.086-.011-7.018-.044-7.018-.044l-4.565,1.39a2.049,2.049,0,0,1-.69-1.691c.131-1-.263-1.434-.657-3.35s1.39-2.343.564-4.341.438-2.912.438-2.912c.027.005.06.016.093.022a3.2,3.2,0,0,0,1.232,2.064c1.117.586.356,1.566-.29,2.075s.312,1.33.684,2.091-1.505,1.757-1.27,2.814,10.838,2.173,13.428.766a1.939,1.939,0,0,0,.569-.471l.432.071a3.917,3.917,0,0,1,1.221-.52C217.786,215.545,218.815,215.643,218.684,216.163Z" transform="translate(-150.639 -119.55)" fill="#8ebcb8"/>
      <path id="Path_12802" data-name="Path 12802" d="M229.468,209.747a12.014,12.014,0,0,0-.438-2.2h.055c1.243-.066,3.2-.87,3.75-.049s-.3,1.473-1.664,1.828C230.694,209.451,230.07,209.6,229.468,209.747Z" transform="translate(-163.842 -119.686)" fill="#8ebcb8"/>
      <path id="Path_12803" data-name="Path 12803" d="M233.284,217.859a5.023,5.023,0,0,1-2.7,1.664,7.567,7.567,0,0,1-1.56.2,6.958,6.958,0,0,0,.52-2.107l.334.011a13.884,13.884,0,0,0,2.009-.909c1.144-.624,1.21-.493,1.6-.3S233.81,217.241,233.284,217.859Z" transform="translate(-163.838 -123.819)" fill="#8ebcb8"/>
      <path id="Path_12804" data-name="Path 12804" d="M234.572,212.029c-.29.619-3.158,2.343-4.368,2.606l-.186.033a16.938,16.938,0,0,0-.027-2.474l.12-.005s3.323-1.56,3.876-1.462A.871.871,0,0,1,234.572,212.029Z" transform="translate(-164.277 -121.312)" fill="#8ebcb8"/>
      <path id="Path_12805" data-name="Path 12805" d="M142.365,241.728V244.8H110.14V239.21c1.73.832,5.671,2.168,13.7,2.649A137.044,137.044,0,0,0,142.365,241.728Z" transform="translate(-110.032 -134.206)" fill="#560505"/>
      <path id="Path_12806" data-name="Path 12806" d="M163.911,355.32c-.022.952-.049,1.686-.077,2.162-.071,1.084-.29,3.076-.613,5.644a2,2,0,0,1-2.2.3c-4.456-1.642-3.832-7.51-3.6-8.058C157.616,354.931,162.132,355.194,163.911,355.32Z" transform="translate(-131.359 -186.67)" fill="#015d75"/>
      <path id="Path_12807" data-name="Path 12807" d="M132.015,224.629a13.075,13.075,0,0,1-2.584-.257c-.142-.038-.279-.077-.411-.12h-.005c-2.852-.92-3.98-2.983-4.626-5.611a9.97,9.97,0,0,1,4.631.734C131.189,220.365,131.835,223.4,132.015,224.629Z" transform="translate(-116.482 -124.885)" fill="#dd704e"/>
      <path id="Path_12808" data-name="Path 12808" d="M174.747,90.01a1.572,1.572,0,0,1-.175.69l-.788,1.576s-.016.224-.044.6c-.947.131-2.343-.5-2.31-.881.038-.465.662-.153,1.522-.7C173.592,90.891,174.385,90.289,174.747,90.01Z" transform="translate(-137.772 -66.677)" fill="#8ebcb8"/>
      <path id="Path_12809" data-name="Path 12809" d="M165.374,101.173a.481.481,0,0,1-.027.082c-.339.92-1.719,1.259-3.3,1.319h-.011c-3.958-.909-5.687-3.98-6.164-7.237-.411-2.8.268-3.635,2.5-4.308a9.256,9.256,0,0,0-.876,4.034c.077,2.633,2.3,3.339,3.208,4.708a3.751,3.751,0,0,0,4.434,1.505C165.221,101.239,165.3,101.206,165.374,101.173Z" transform="translate(-130.682 -67.139)" fill="#8ebcb8"/>
      <path id="Path_12810" data-name="Path 12810" d="M145.785,84.375s3.787,3.932,5.935,4.854" transform="translate(-126.165 -64.127)" fill="none" stroke="#003755" stroke-linecap="round" stroke-miterlimit="10" stroke-width="1"/>
      <path id="Path_12811" data-name="Path 12811" d="M130.668,109.179s3.138,1.29,3.929,2.522-4.134,1.026-5.132.645-.147-1.025.088-1.436S129.571,109.325,130.668,109.179Z" transform="translate(-118.565 -75.353)" fill="#015d75"/>
    </g>
  </g>
</svg>
